<mxfile host="Electron" modified="2024-04-04T15:04:25.116Z" agent="Mozilla/5.0 (X11; Linux x86_64) AppleWebKit/537.36 (KHTML, like Gecko) draw.io/24.1.0 Chrome/120.0.6099.109 Electron/28.1.0 Safari/537.36" etag="MIujz8IVIIw-qcB-2PBm" version="24.1.0" type="device">
  <diagram name="Page-1" id="-cMVqA2Gkwa5aGeDibPs">
    <mxGraphModel dx="2162" dy="1643" grid="1" gridSize="10" guides="1" tooltips="1" connect="1" arrows="1" fold="1" page="0" pageScale="1" pageWidth="413" pageHeight="583" math="1" shadow="0">
      <root>
        <mxCell id="0" />
        <mxCell id="1" parent="0" />
        <mxCell id="GCO7xrDp6TmdYOZJOnFd-1" value="&lt;font style=&quot;font-size: 9px;&quot;&gt;$$UOelPu$$&lt;/font&gt;" style="triangle;whiteSpace=wrap;html=1;align=left;" parent="1" vertex="1">
          <mxGeometry x="-700" y="-120" width="60" height="80" as="geometry" />
        </mxCell>
        <mxCell id="eN8Zq5XajQ-hrPbZrUXH-4" value="" style="edgeStyle=orthogonalEdgeStyle;rounded=0;orthogonalLoop=1;jettySize=auto;html=1;" parent="1" source="GCO7xrDp6TmdYOZJOnFd-2" target="eN8Zq5XajQ-hrPbZrUXH-3" edge="1">
          <mxGeometry relative="1" as="geometry" />
        </mxCell>
        <mxCell id="GCO7xrDp6TmdYOZJOnFd-2" value="&lt;font style=&quot;font-size: 9px;&quot;&gt;$$UsPu$$&lt;/font&gt;" style="triangle;whiteSpace=wrap;html=1;align=left;" parent="1" vertex="1">
          <mxGeometry x="-700" y="200" width="60" height="80" as="geometry" />
        </mxCell>
        <mxCell id="GCO7xrDp6TmdYOZJOnFd-3" value="&lt;font style=&quot;font-size: 9px;&quot;&gt;$$UsRefPu$$&lt;/font&gt;" style="triangle;whiteSpace=wrap;html=1;align=left;" parent="1" vertex="1">
          <mxGeometry x="-700" y="40" width="60" height="80" as="geometry" />
        </mxCell>
        <mxCell id="eN8Zq5XajQ-hrPbZrUXH-8" value="" style="edgeStyle=orthogonalEdgeStyle;rounded=0;orthogonalLoop=1;jettySize=auto;html=1;" parent="1" source="GCO7xrDp6TmdYOZJOnFd-4" target="GCO7xrDp6TmdYOZJOnFd-120" edge="1">
          <mxGeometry relative="1" as="geometry" />
        </mxCell>
        <mxCell id="GCO7xrDp6TmdYOZJOnFd-4" value="&lt;table style=&quot;&quot;&gt;&lt;tbody&gt;&lt;tr&gt;&lt;td&gt;&lt;font style=&quot;font-size: 12px;&quot;&gt;$$1$$&lt;/font&gt;&lt;/td&gt;&lt;/tr&gt;&lt;tr&gt;&lt;td&gt;&lt;font style=&quot;font-size: 12px;&quot;&gt;$$-1$$&lt;/font&gt;&lt;/td&gt;&lt;/tr&gt;&lt;/tbody&gt;&lt;/table&gt;" style="whiteSpace=wrap;html=1;aspect=fixed;" parent="1" vertex="1">
          <mxGeometry x="-440" y="120" width="80" height="80" as="geometry" />
        </mxCell>
        <mxCell id="GCO7xrDp6TmdYOZJOnFd-127" style="edgeStyle=orthogonalEdgeStyle;rounded=0;orthogonalLoop=1;jettySize=auto;html=1;exitX=0.5;exitY=1;exitDx=0;exitDy=0;" parent="1" source="GCO7xrDp6TmdYOZJOnFd-99" edge="1">
          <mxGeometry relative="1" as="geometry">
            <mxPoint x="520.2" y="190.20000000000005" as="targetPoint" />
          </mxGeometry>
        </mxCell>
        <mxCell id="U0r4ra3TlqdGY_YgzOI1-25" value="" style="edgeStyle=orthogonalEdgeStyle;rounded=0;orthogonalLoop=1;jettySize=auto;html=1;" parent="1" source="GCO7xrDp6TmdYOZJOnFd-99" target="hHR6AVDcYujb22-yYQ_T-5" edge="1">
          <mxGeometry relative="1" as="geometry" />
        </mxCell>
        <mxCell id="GCO7xrDp6TmdYOZJOnFd-99" value="&lt;font style=&quot;font-size: 11px;&quot;&gt;$$\frac{Kir}{s}+Kpr+\frac{Kdr}{1+tDr*s}$$&lt;/font&gt;" style="rounded=0;whiteSpace=wrap;html=1;" parent="1" vertex="1">
          <mxGeometry x="440" y="120" width="160" height="80" as="geometry" />
        </mxCell>
        <mxCell id="GCO7xrDp6TmdYOZJOnFd-110" value="" style="endArrow=none;html=1;exitX=0.5;exitY=0;exitDx=0;exitDy=0;" parent="1" source="GCO7xrDp6TmdYOZJOnFd-99" edge="1">
          <mxGeometry width="50" height="50" relative="1" as="geometry">
            <mxPoint x="520" y="130" as="sourcePoint" />
            <mxPoint x="560" y="110" as="targetPoint" />
          </mxGeometry>
        </mxCell>
        <mxCell id="GCO7xrDp6TmdYOZJOnFd-111" value="" style="endArrow=none;html=1;" parent="1" edge="1">
          <mxGeometry width="50" height="50" relative="1" as="geometry">
            <mxPoint x="560" y="110" as="sourcePoint" />
            <mxPoint x="580" y="110" as="targetPoint" />
          </mxGeometry>
        </mxCell>
        <mxCell id="GCO7xrDp6TmdYOZJOnFd-112" value="&lt;font style=&quot;font-size: 9px;&quot;&gt;$$VrMaxPu$$&lt;/font&gt;" style="text;html=1;strokeColor=none;fillColor=none;align=center;verticalAlign=middle;whiteSpace=wrap;rounded=0;fontSize=15;" parent="1" vertex="1">
          <mxGeometry x="540" y="85" width="60" height="30" as="geometry" />
        </mxCell>
        <mxCell id="GCO7xrDp6TmdYOZJOnFd-113" value="" style="endArrow=none;html=1;" parent="1" edge="1">
          <mxGeometry width="50" height="50" relative="1" as="geometry">
            <mxPoint x="481" y="210" as="sourcePoint" />
            <mxPoint x="461" y="210" as="targetPoint" />
          </mxGeometry>
        </mxCell>
        <mxCell id="GCO7xrDp6TmdYOZJOnFd-114" value="&lt;font style=&quot;font-size: 9px;&quot;&gt;$$VrMinPu$$&lt;/font&gt;" style="text;html=1;strokeColor=none;fillColor=none;align=center;verticalAlign=middle;whiteSpace=wrap;rounded=0;fontSize=15;" parent="1" vertex="1">
          <mxGeometry x="440" y="206" width="60" height="30" as="geometry" />
        </mxCell>
        <mxCell id="GCO7xrDp6TmdYOZJOnFd-115" value="" style="endArrow=none;html=1;exitX=0.5;exitY=0;exitDx=0;exitDy=0;entryX=0.5;entryY=1;entryDx=0;entryDy=0;" parent="1" target="GCO7xrDp6TmdYOZJOnFd-99" edge="1">
          <mxGeometry width="50" height="50" relative="1" as="geometry">
            <mxPoint x="481" y="210" as="sourcePoint" />
            <mxPoint x="501" y="190" as="targetPoint" />
          </mxGeometry>
        </mxCell>
        <mxCell id="GCO7xrDp6TmdYOZJOnFd-120" value="&lt;table style=&quot;&quot;&gt;&lt;tbody&gt;&lt;tr&gt;&lt;td&gt;&lt;font style=&quot;font-size: 12px;&quot;&gt;$$+$$&lt;/font&gt;&lt;/td&gt;&lt;/tr&gt;&lt;/tbody&gt;&lt;/table&gt;" style="whiteSpace=wrap;html=1;aspect=fixed;" parent="1" vertex="1">
          <mxGeometry x="-280" y="120" width="80" height="80" as="geometry" />
        </mxCell>
        <mxCell id="pcb0Rrb9AqgbB0oOaPCg-23" value="&lt;font style=&quot;font-size: 10px;&quot;&gt;$$EfdPu$$&lt;/font&gt;" style="triangle;whiteSpace=wrap;html=1;align=left;" parent="1" vertex="1">
          <mxGeometry x="1920" y="-80" width="60" height="80" as="geometry" />
        </mxCell>
        <mxCell id="eN8Zq5XajQ-hrPbZrUXH-3" value="$$\frac{1}{1+tR*s}$$" style="whiteSpace=wrap;html=1;aspect=fixed;" parent="1" vertex="1">
          <mxGeometry x="-600" y="200" width="80" height="80" as="geometry" />
        </mxCell>
        <mxCell id="eN8Zq5XajQ-hrPbZrUXH-10" value="&lt;font style=&quot;font-size: 9px;&quot;&gt;$$UUelPu$$&lt;/font&gt;" style="triangle;whiteSpace=wrap;html=1;align=left;" parent="1" vertex="1">
          <mxGeometry x="-700" y="440" width="60" height="80" as="geometry" />
        </mxCell>
        <mxCell id="eN8Zq5XajQ-hrPbZrUXH-11" value="&lt;font style=&quot;font-size: 9px;&quot;&gt;$$UPssPu$$&lt;/font&gt;" style="triangle;whiteSpace=wrap;html=1;align=left;" parent="1" vertex="1">
          <mxGeometry x="-700" y="320" width="60" height="80" as="geometry" />
        </mxCell>
        <mxCell id="U0r4ra3TlqdGY_YgzOI1-9" value="" style="edgeStyle=orthogonalEdgeStyle;rounded=0;orthogonalLoop=1;jettySize=auto;html=1;" parent="1" source="eN8Zq5XajQ-hrPbZrUXH-25" target="U0r4ra3TlqdGY_YgzOI1-3" edge="1">
          <mxGeometry relative="1" as="geometry" />
        </mxCell>
        <mxCell id="eN8Zq5XajQ-hrPbZrUXH-25" value="" style="ellipse;whiteSpace=wrap;html=1;aspect=fixed;" parent="1" vertex="1">
          <mxGeometry x="-140" y="140" width="40" height="40" as="geometry" />
        </mxCell>
        <mxCell id="eN8Zq5XajQ-hrPbZrUXH-26" value="+" style="text;html=1;strokeColor=none;fillColor=none;align=center;verticalAlign=middle;whiteSpace=wrap;rounded=0;fontSize=20;" parent="1" vertex="1">
          <mxGeometry x="-180" y="129" width="60" height="31" as="geometry" />
        </mxCell>
        <mxCell id="eN8Zq5XajQ-hrPbZrUXH-27" value="-" style="text;html=1;strokeColor=none;fillColor=none;align=center;verticalAlign=middle;whiteSpace=wrap;rounded=0;fontSize=20;" parent="1" vertex="1">
          <mxGeometry x="-127" y="180" width="60" height="30" as="geometry" />
        </mxCell>
        <mxCell id="hHR6AVDcYujb22-yYQ_T-5" value="" style="whiteSpace=wrap;html=1;aspect=fixed;" parent="1" vertex="1">
          <mxGeometry x="680" y="120" width="80" height="80" as="geometry" />
        </mxCell>
        <mxCell id="hHR6AVDcYujb22-yYQ_T-7" value="" style="endArrow=none;html=1;" parent="1" edge="1">
          <mxGeometry width="50" height="50" relative="1" as="geometry">
            <mxPoint x="708" y="175" as="sourcePoint" />
            <mxPoint x="732" y="145" as="targetPoint" />
          </mxGeometry>
        </mxCell>
        <mxCell id="hHR6AVDcYujb22-yYQ_T-8" value="" style="endArrow=none;html=1;" parent="1" edge="1">
          <mxGeometry width="50" height="50" relative="1" as="geometry">
            <mxPoint x="732" y="145" as="sourcePoint" />
            <mxPoint x="752" y="145" as="targetPoint" />
          </mxGeometry>
        </mxCell>
        <mxCell id="hHR6AVDcYujb22-yYQ_T-9" value="" style="endArrow=none;html=1;" parent="1" edge="1">
          <mxGeometry width="50" height="50" relative="1" as="geometry">
            <mxPoint x="708" y="175" as="sourcePoint" />
            <mxPoint x="688" y="175" as="targetPoint" />
          </mxGeometry>
        </mxCell>
        <mxCell id="hHR6AVDcYujb22-yYQ_T-10" value="" style="endArrow=classic;html=1;entryX=0;entryY=0.75;entryDx=0;entryDy=0;" parent="1" target="hHR6AVDcYujb22-yYQ_T-5" edge="1">
          <mxGeometry width="50" height="50" relative="1" as="geometry">
            <mxPoint x="640" y="180" as="sourcePoint" />
            <mxPoint x="679.9999999999999" y="177" as="targetPoint" />
          </mxGeometry>
        </mxCell>
        <mxCell id="hHR6AVDcYujb22-yYQ_T-11" value="" style="endArrow=classic;html=1;entryX=0;entryY=0.25;entryDx=0;entryDy=0;" parent="1" target="hHR6AVDcYujb22-yYQ_T-5" edge="1">
          <mxGeometry width="50" height="50" relative="1" as="geometry">
            <mxPoint x="640" y="140" as="sourcePoint" />
            <mxPoint x="679.9999999999999" y="145" as="targetPoint" />
          </mxGeometry>
        </mxCell>
        <mxCell id="qLZYFt0uQZEpN5fuRu8l-12" value="$$\frac{Kf3*s}{1+tF*s}$$" style="rounded=0;whiteSpace=wrap;html=1;" parent="1" vertex="1">
          <mxGeometry y="400" width="80" height="80" as="geometry" />
        </mxCell>
        <mxCell id="qLZYFt0uQZEpN5fuRu8l-13" value="&lt;font style=&quot;font-size: 12px;&quot;&gt;$$AcRotatingExciter$$&lt;/font&gt;" style="rounded=0;whiteSpace=wrap;html=1;" parent="1" vertex="1">
          <mxGeometry x="1640" y="-120" width="160" height="160" as="geometry" />
        </mxCell>
        <mxCell id="kH9g7bd3vH2FBUtWPBsq-3" value="&lt;table style=&quot;&quot;&gt;&lt;tbody&gt;&lt;tr&gt;&lt;td&gt;&lt;font style=&quot;font-size: 12px;&quot;&gt;$$Kr$$&lt;/font&gt;&lt;/td&gt;&lt;/tr&gt;&lt;/tbody&gt;&lt;/table&gt;" style="whiteSpace=wrap;html=1;aspect=fixed;" parent="1" vertex="1">
          <mxGeometry x="1720" y="-240" width="80" height="80" as="geometry" />
        </mxCell>
        <mxCell id="kH9g7bd3vH2FBUtWPBsq-4" value="&lt;table style=&quot;&quot;&gt;&lt;tbody&gt;&lt;tr&gt;&lt;td&gt;&lt;font style=&quot;font-size: 12px;&quot;&gt;$$Kf2$$&lt;/font&gt;&lt;/td&gt;&lt;/tr&gt;&lt;tr&gt;&lt;td&gt;&lt;font style=&quot;font-size: 12px;&quot;&gt;$$Kf1$$&lt;/font&gt;&lt;/td&gt;&lt;/tr&gt;&lt;/tbody&gt;&lt;/table&gt;" style="whiteSpace=wrap;html=1;aspect=fixed;" parent="1" vertex="1">
          <mxGeometry x="1480" y="320" width="80" height="80" as="geometry" />
        </mxCell>
        <mxCell id="kH9g7bd3vH2FBUtWPBsq-5" value="&lt;table style=&quot;font-size: 11px;&quot;&gt;&lt;tbody&gt;&lt;tr&gt;&lt;td&gt;&lt;font style=&quot;font-size: 12px;&quot;&gt;$$Sw2$$&lt;/font&gt;&lt;/td&gt;&lt;/tr&gt;&lt;/tbody&gt;&lt;/table&gt;" style="whiteSpace=wrap;html=1;aspect=fixed;" parent="1" vertex="1">
          <mxGeometry x="1000" y="-320" width="80" height="80" as="geometry" />
        </mxCell>
        <mxCell id="U0r4ra3TlqdGY_YgzOI1-1" value="" style="endArrow=classic;html=1;rounded=0;exitX=1;exitY=0.5;exitDx=0;exitDy=0;entryX=0;entryY=0.75;entryDx=0;entryDy=0;" parent="1" source="eN8Zq5XajQ-hrPbZrUXH-3" target="GCO7xrDp6TmdYOZJOnFd-4" edge="1">
          <mxGeometry width="50" height="50" relative="1" as="geometry">
            <mxPoint x="-440" y="180" as="sourcePoint" />
            <mxPoint x="-390" y="130" as="targetPoint" />
            <Array as="points">
              <mxPoint x="-480" y="240" />
              <mxPoint x="-480" y="180" />
            </Array>
          </mxGeometry>
        </mxCell>
        <mxCell id="U0r4ra3TlqdGY_YgzOI1-2" value="" style="endArrow=classic;html=1;rounded=0;exitX=1;exitY=0.5;exitDx=0;exitDy=0;entryX=0;entryY=0.25;entryDx=0;entryDy=0;" parent="1" source="GCO7xrDp6TmdYOZJOnFd-3" target="GCO7xrDp6TmdYOZJOnFd-4" edge="1">
          <mxGeometry width="50" height="50" relative="1" as="geometry">
            <mxPoint x="-440" y="180" as="sourcePoint" />
            <mxPoint x="-390" y="130" as="targetPoint" />
            <Array as="points">
              <mxPoint x="-480" y="80" />
              <mxPoint x="-480" y="140" />
            </Array>
          </mxGeometry>
        </mxCell>
        <mxCell id="U0r4ra3TlqdGY_YgzOI1-18" value="" style="edgeStyle=orthogonalEdgeStyle;rounded=0;orthogonalLoop=1;jettySize=auto;html=1;" parent="1" source="U0r4ra3TlqdGY_YgzOI1-3" target="U0r4ra3TlqdGY_YgzOI1-10" edge="1">
          <mxGeometry relative="1" as="geometry" />
        </mxCell>
        <mxCell id="U0r4ra3TlqdGY_YgzOI1-3" value="" style="whiteSpace=wrap;html=1;aspect=fixed;" parent="1" vertex="1">
          <mxGeometry y="120" width="80" height="80" as="geometry" />
        </mxCell>
        <mxCell id="U0r4ra3TlqdGY_YgzOI1-4" value="" style="endArrow=none;html=1;" parent="1" edge="1">
          <mxGeometry width="50" height="50" relative="1" as="geometry">
            <mxPoint x="28" y="175" as="sourcePoint" />
            <mxPoint x="52" y="145" as="targetPoint" />
          </mxGeometry>
        </mxCell>
        <mxCell id="U0r4ra3TlqdGY_YgzOI1-6" value="" style="endArrow=none;html=1;" parent="1" edge="1">
          <mxGeometry width="50" height="50" relative="1" as="geometry">
            <mxPoint x="28" y="175" as="sourcePoint" />
            <mxPoint x="8" y="175" as="targetPoint" />
          </mxGeometry>
        </mxCell>
        <mxCell id="U0r4ra3TlqdGY_YgzOI1-7" value="" style="endArrow=classic;html=1;entryX=0;entryY=0.75;entryDx=0;entryDy=0;" parent="1" target="U0r4ra3TlqdGY_YgzOI1-3" edge="1">
          <mxGeometry width="50" height="50" relative="1" as="geometry">
            <mxPoint x="-40" y="180" as="sourcePoint" />
            <mxPoint x="-1.1368683772161603e-13" y="177" as="targetPoint" />
          </mxGeometry>
        </mxCell>
        <mxCell id="U0r4ra3TlqdGY_YgzOI1-17" value="" style="edgeStyle=orthogonalEdgeStyle;rounded=0;orthogonalLoop=1;jettySize=auto;html=1;" parent="1" source="U0r4ra3TlqdGY_YgzOI1-10" target="U0r4ra3TlqdGY_YgzOI1-11" edge="1">
          <mxGeometry relative="1" as="geometry" />
        </mxCell>
        <mxCell id="U0r4ra3TlqdGY_YgzOI1-10" value="&lt;table style=&quot;&quot;&gt;&lt;tbody&gt;&lt;tr&gt;&lt;td&gt;&lt;font style=&quot;font-size: 12px;&quot;&gt;$$+$$&lt;/font&gt;&lt;/td&gt;&lt;/tr&gt;&lt;/tbody&gt;&lt;/table&gt;" style="whiteSpace=wrap;html=1;aspect=fixed;" parent="1" vertex="1">
          <mxGeometry x="160" y="120" width="80" height="80" as="geometry" />
        </mxCell>
        <mxCell id="Lio4vAGDhd_oJqH9jxSa-1" value="" style="edgeStyle=orthogonalEdgeStyle;rounded=0;orthogonalLoop=1;jettySize=auto;html=1;" parent="1" source="U0r4ra3TlqdGY_YgzOI1-11" target="GCO7xrDp6TmdYOZJOnFd-99" edge="1">
          <mxGeometry relative="1" as="geometry" />
        </mxCell>
        <mxCell id="U0r4ra3TlqdGY_YgzOI1-11" value="" style="whiteSpace=wrap;html=1;aspect=fixed;" parent="1" vertex="1">
          <mxGeometry x="320" y="120" width="80" height="80" as="geometry" />
        </mxCell>
        <mxCell id="U0r4ra3TlqdGY_YgzOI1-12" value="" style="endArrow=none;html=1;" parent="1" edge="1">
          <mxGeometry width="50" height="50" relative="1" as="geometry">
            <mxPoint x="348" y="175" as="sourcePoint" />
            <mxPoint x="372" y="145" as="targetPoint" />
          </mxGeometry>
        </mxCell>
        <mxCell id="U0r4ra3TlqdGY_YgzOI1-13" value="" style="endArrow=none;html=1;" parent="1" edge="1">
          <mxGeometry width="50" height="50" relative="1" as="geometry">
            <mxPoint x="372" y="145" as="sourcePoint" />
            <mxPoint x="392" y="145" as="targetPoint" />
          </mxGeometry>
        </mxCell>
        <mxCell id="U0r4ra3TlqdGY_YgzOI1-16" value="" style="endArrow=classic;html=1;entryX=0;entryY=0.25;entryDx=0;entryDy=0;" parent="1" target="U0r4ra3TlqdGY_YgzOI1-11" edge="1">
          <mxGeometry width="50" height="50" relative="1" as="geometry">
            <mxPoint x="280" y="140" as="sourcePoint" />
            <mxPoint x="319.9999999999999" y="145" as="targetPoint" />
          </mxGeometry>
        </mxCell>
        <mxCell id="U0r4ra3TlqdGY_YgzOI1-70" value="" style="edgeStyle=orthogonalEdgeStyle;rounded=0;orthogonalLoop=1;jettySize=auto;html=1;" parent="1" source="U0r4ra3TlqdGY_YgzOI1-22" target="U0r4ra3TlqdGY_YgzOI1-40" edge="1">
          <mxGeometry relative="1" as="geometry" />
        </mxCell>
        <mxCell id="U0r4ra3TlqdGY_YgzOI1-22" value="" style="ellipse;whiteSpace=wrap;html=1;aspect=fixed;" parent="1" vertex="1">
          <mxGeometry x="820" y="140" width="40" height="40" as="geometry" />
        </mxCell>
        <mxCell id="U0r4ra3TlqdGY_YgzOI1-23" value="+" style="text;html=1;strokeColor=none;fillColor=none;align=center;verticalAlign=middle;whiteSpace=wrap;rounded=0;fontSize=20;" parent="1" vertex="1">
          <mxGeometry x="780" y="129" width="60" height="31" as="geometry" />
        </mxCell>
        <mxCell id="U0r4ra3TlqdGY_YgzOI1-24" value="-" style="text;html=1;strokeColor=none;fillColor=none;align=center;verticalAlign=middle;whiteSpace=wrap;rounded=0;fontSize=20;" parent="1" vertex="1">
          <mxGeometry x="833" y="180" width="60" height="30" as="geometry" />
        </mxCell>
        <mxCell id="U0r4ra3TlqdGY_YgzOI1-26" value="" style="endArrow=classic;html=1;rounded=0;exitX=1;exitY=0.5;exitDx=0;exitDy=0;entryX=0;entryY=0.5;entryDx=0;entryDy=0;" parent="1" source="hHR6AVDcYujb22-yYQ_T-5" target="U0r4ra3TlqdGY_YgzOI1-22" edge="1">
          <mxGeometry width="50" height="50" relative="1" as="geometry">
            <mxPoint x="700" y="100" as="sourcePoint" />
            <mxPoint x="750" y="50" as="targetPoint" />
          </mxGeometry>
        </mxCell>
        <mxCell id="U0r4ra3TlqdGY_YgzOI1-27" value="" style="whiteSpace=wrap;html=1;aspect=fixed;" parent="1" vertex="1">
          <mxGeometry x="1160" y="120" width="80" height="80" as="geometry" />
        </mxCell>
        <mxCell id="U0r4ra3TlqdGY_YgzOI1-28" value="" style="endArrow=none;html=1;" parent="1" edge="1">
          <mxGeometry width="50" height="50" relative="1" as="geometry">
            <mxPoint x="1188" y="175" as="sourcePoint" />
            <mxPoint x="1212" y="145" as="targetPoint" />
          </mxGeometry>
        </mxCell>
        <mxCell id="U0r4ra3TlqdGY_YgzOI1-29" value="" style="endArrow=none;html=1;" parent="1" edge="1">
          <mxGeometry width="50" height="50" relative="1" as="geometry">
            <mxPoint x="1212" y="145" as="sourcePoint" />
            <mxPoint x="1232" y="145" as="targetPoint" />
          </mxGeometry>
        </mxCell>
        <mxCell id="U0r4ra3TlqdGY_YgzOI1-30" value="" style="endArrow=classic;html=1;entryX=0;entryY=0.25;entryDx=0;entryDy=0;" parent="1" target="U0r4ra3TlqdGY_YgzOI1-27" edge="1">
          <mxGeometry width="50" height="50" relative="1" as="geometry">
            <mxPoint x="1120" y="140" as="sourcePoint" />
            <mxPoint x="1160" y="145" as="targetPoint" />
          </mxGeometry>
        </mxCell>
        <mxCell id="U0r4ra3TlqdGY_YgzOI1-39" style="edgeStyle=orthogonalEdgeStyle;rounded=0;orthogonalLoop=1;jettySize=auto;html=1;exitX=0.5;exitY=1;exitDx=0;exitDy=0;" parent="1" source="U0r4ra3TlqdGY_YgzOI1-40" edge="1">
          <mxGeometry relative="1" as="geometry">
            <mxPoint x="1000.2" y="190.20000000000005" as="targetPoint" />
          </mxGeometry>
        </mxCell>
        <mxCell id="U0r4ra3TlqdGY_YgzOI1-47" value="" style="edgeStyle=orthogonalEdgeStyle;rounded=0;orthogonalLoop=1;jettySize=auto;html=1;" parent="1" source="U0r4ra3TlqdGY_YgzOI1-40" target="U0r4ra3TlqdGY_YgzOI1-27" edge="1">
          <mxGeometry relative="1" as="geometry" />
        </mxCell>
        <mxCell id="U0r4ra3TlqdGY_YgzOI1-40" value="&lt;font style=&quot;font-size: 12px;&quot;&gt;$$\frac{Kia}{s}+Kpa$$&lt;/font&gt;" style="rounded=0;whiteSpace=wrap;html=1;" parent="1" vertex="1">
          <mxGeometry x="920" y="120" width="160" height="80" as="geometry" />
        </mxCell>
        <mxCell id="U0r4ra3TlqdGY_YgzOI1-41" value="" style="endArrow=none;html=1;exitX=0.5;exitY=0;exitDx=0;exitDy=0;" parent="1" source="U0r4ra3TlqdGY_YgzOI1-40" edge="1">
          <mxGeometry width="50" height="50" relative="1" as="geometry">
            <mxPoint x="1000" y="130" as="sourcePoint" />
            <mxPoint x="1040" y="110" as="targetPoint" />
          </mxGeometry>
        </mxCell>
        <mxCell id="U0r4ra3TlqdGY_YgzOI1-42" value="" style="endArrow=none;html=1;" parent="1" edge="1">
          <mxGeometry width="50" height="50" relative="1" as="geometry">
            <mxPoint x="1040" y="110" as="sourcePoint" />
            <mxPoint x="1060" y="110" as="targetPoint" />
          </mxGeometry>
        </mxCell>
        <mxCell id="U0r4ra3TlqdGY_YgzOI1-43" value="&lt;font style=&quot;font-size: 9px;&quot;&gt;$$VaMaxPu$$&lt;/font&gt;" style="text;html=1;strokeColor=none;fillColor=none;align=center;verticalAlign=middle;whiteSpace=wrap;rounded=0;fontSize=15;" parent="1" vertex="1">
          <mxGeometry x="1020" y="85" width="60" height="30" as="geometry" />
        </mxCell>
        <mxCell id="U0r4ra3TlqdGY_YgzOI1-44" value="" style="endArrow=none;html=1;" parent="1" edge="1">
          <mxGeometry width="50" height="50" relative="1" as="geometry">
            <mxPoint x="961" y="210" as="sourcePoint" />
            <mxPoint x="941" y="210" as="targetPoint" />
          </mxGeometry>
        </mxCell>
        <mxCell id="U0r4ra3TlqdGY_YgzOI1-45" value="&lt;font style=&quot;font-size: 9px;&quot;&gt;$$VaMinPu$$&lt;/font&gt;" style="text;html=1;strokeColor=none;fillColor=none;align=center;verticalAlign=middle;whiteSpace=wrap;rounded=0;fontSize=15;" parent="1" vertex="1">
          <mxGeometry x="920" y="206" width="60" height="30" as="geometry" />
        </mxCell>
        <mxCell id="U0r4ra3TlqdGY_YgzOI1-46" value="" style="endArrow=none;html=1;exitX=0.5;exitY=0;exitDx=0;exitDy=0;entryX=0.5;entryY=1;entryDx=0;entryDy=0;" parent="1" target="U0r4ra3TlqdGY_YgzOI1-40" edge="1">
          <mxGeometry width="50" height="50" relative="1" as="geometry">
            <mxPoint x="961" y="210" as="sourcePoint" />
            <mxPoint x="981" y="190" as="targetPoint" />
          </mxGeometry>
        </mxCell>
        <mxCell id="U0r4ra3TlqdGY_YgzOI1-55" value="" style="edgeStyle=orthogonalEdgeStyle;rounded=0;orthogonalLoop=1;jettySize=auto;html=1;" parent="1" source="U0r4ra3TlqdGY_YgzOI1-48" target="U0r4ra3TlqdGY_YgzOI1-49" edge="1">
          <mxGeometry relative="1" as="geometry" />
        </mxCell>
        <mxCell id="U0r4ra3TlqdGY_YgzOI1-48" value="&lt;table style=&quot;&quot;&gt;&lt;tbody&gt;&lt;tr&gt;&lt;td&gt;&lt;font style=&quot;font-size: 12px;&quot;&gt;$$*$$&lt;/font&gt;&lt;/td&gt;&lt;/tr&gt;&lt;/tbody&gt;&lt;/table&gt;" style="whiteSpace=wrap;html=1;aspect=fixed;" parent="1" vertex="1">
          <mxGeometry x="1320" y="40" width="80" height="80" as="geometry" />
        </mxCell>
        <mxCell id="U0r4ra3TlqdGY_YgzOI1-49" value="" style="whiteSpace=wrap;html=1;aspect=fixed;" parent="1" vertex="1">
          <mxGeometry x="1480" y="40" width="80" height="80" as="geometry" />
        </mxCell>
        <mxCell id="U0r4ra3TlqdGY_YgzOI1-50" value="" style="endArrow=none;html=1;" parent="1" edge="1">
          <mxGeometry width="50" height="50" relative="1" as="geometry">
            <mxPoint x="1508" y="95" as="sourcePoint" />
            <mxPoint x="1532" y="65" as="targetPoint" />
          </mxGeometry>
        </mxCell>
        <mxCell id="U0r4ra3TlqdGY_YgzOI1-52" value="" style="endArrow=none;html=1;" parent="1" edge="1">
          <mxGeometry width="50" height="50" relative="1" as="geometry">
            <mxPoint x="1508" y="95" as="sourcePoint" />
            <mxPoint x="1488" y="95" as="targetPoint" />
          </mxGeometry>
        </mxCell>
        <mxCell id="U0r4ra3TlqdGY_YgzOI1-56" value="" style="endArrow=classic;html=1;rounded=0;exitX=1;exitY=0.5;exitDx=0;exitDy=0;entryX=0;entryY=0.75;entryDx=0;entryDy=0;" parent="1" source="U0r4ra3TlqdGY_YgzOI1-49" target="qLZYFt0uQZEpN5fuRu8l-13" edge="1">
          <mxGeometry width="50" height="50" relative="1" as="geometry">
            <mxPoint x="1620" as="sourcePoint" />
            <mxPoint x="1670" y="-50" as="targetPoint" />
            <Array as="points">
              <mxPoint x="1600" y="80" />
              <mxPoint x="1600" />
            </Array>
          </mxGeometry>
        </mxCell>
        <mxCell id="U0r4ra3TlqdGY_YgzOI1-57" value="&lt;table style=&quot;&quot;&gt;&lt;tbody&gt;&lt;tr&gt;&lt;td&gt;&lt;font style=&quot;font-size: 12px;&quot;&gt;$$-Kl$$&lt;/font&gt;&lt;/td&gt;&lt;/tr&gt;&lt;/tbody&gt;&lt;/table&gt;" style="whiteSpace=wrap;html=1;aspect=fixed;" parent="1" vertex="1">
          <mxGeometry x="1480" y="160" width="80" height="80" as="geometry" />
        </mxCell>
        <mxCell id="U0r4ra3TlqdGY_YgzOI1-58" value="" style="endArrow=classic;html=1;rounded=0;exitX=0;exitY=0.5;exitDx=0;exitDy=0;entryX=0;entryY=0.75;entryDx=0;entryDy=0;" parent="1" source="U0r4ra3TlqdGY_YgzOI1-57" target="U0r4ra3TlqdGY_YgzOI1-49" edge="1">
          <mxGeometry width="50" height="50" relative="1" as="geometry">
            <mxPoint x="1130" as="sourcePoint" />
            <mxPoint x="1180" y="-50" as="targetPoint" />
            <Array as="points">
              <mxPoint x="1440" y="200" />
              <mxPoint x="1440" y="100" />
            </Array>
          </mxGeometry>
        </mxCell>
        <mxCell id="U0r4ra3TlqdGY_YgzOI1-59" value="" style="endArrow=classic;html=1;rounded=0;exitX=1;exitY=0.75;exitDx=0;exitDy=0;entryX=1;entryY=0.5;entryDx=0;entryDy=0;" parent="1" source="qLZYFt0uQZEpN5fuRu8l-13" target="U0r4ra3TlqdGY_YgzOI1-57" edge="1">
          <mxGeometry width="50" height="50" relative="1" as="geometry">
            <mxPoint x="1540" as="sourcePoint" />
            <mxPoint x="1590" y="-50" as="targetPoint" />
            <Array as="points">
              <mxPoint x="1840" />
              <mxPoint x="1840" y="200" />
            </Array>
          </mxGeometry>
        </mxCell>
        <mxCell id="U0r4ra3TlqdGY_YgzOI1-60" value="" style="endArrow=classic;html=1;rounded=0;exitX=0;exitY=0.5;exitDx=0;exitDy=0;entryX=0.5;entryY=1;entryDx=0;entryDy=0;" parent="1" source="kH9g7bd3vH2FBUtWPBsq-4" target="U0r4ra3TlqdGY_YgzOI1-22" edge="1">
          <mxGeometry width="50" height="50" relative="1" as="geometry">
            <mxPoint x="1230" y="300" as="sourcePoint" />
            <mxPoint x="1280" y="250" as="targetPoint" />
            <Array as="points">
              <mxPoint x="840" y="360" />
            </Array>
          </mxGeometry>
        </mxCell>
        <mxCell id="U0r4ra3TlqdGY_YgzOI1-61" value="" style="endArrow=classic;html=1;rounded=0;exitX=1;exitY=0.75;exitDx=0;exitDy=0;entryX=1;entryY=0.25;entryDx=0;entryDy=0;" parent="1" source="qLZYFt0uQZEpN5fuRu8l-13" target="kH9g7bd3vH2FBUtWPBsq-4" edge="1">
          <mxGeometry width="50" height="50" relative="1" as="geometry">
            <mxPoint x="1650" y="300" as="sourcePoint" />
            <mxPoint x="1700" y="250" as="targetPoint" />
            <Array as="points">
              <mxPoint x="1840" />
              <mxPoint x="1840" y="340" />
            </Array>
          </mxGeometry>
        </mxCell>
        <mxCell id="U0r4ra3TlqdGY_YgzOI1-62" value="" style="endArrow=classic;html=1;rounded=0;exitX=0;exitY=0.5;exitDx=0;exitDy=0;entryX=0.5;entryY=1;entryDx=0;entryDy=0;" parent="1" source="qLZYFt0uQZEpN5fuRu8l-12" target="eN8Zq5XajQ-hrPbZrUXH-25" edge="1">
          <mxGeometry width="50" height="50" relative="1" as="geometry">
            <mxPoint x="340" y="300" as="sourcePoint" />
            <mxPoint x="390" y="250" as="targetPoint" />
            <Array as="points">
              <mxPoint x="-120" y="440" />
            </Array>
          </mxGeometry>
        </mxCell>
        <mxCell id="U0r4ra3TlqdGY_YgzOI1-63" value="" style="endArrow=classic;html=1;rounded=0;exitX=1;exitY=0.5;exitDx=0;exitDy=0;entryX=0;entryY=0.5;entryDx=0;entryDy=0;" parent="1" source="GCO7xrDp6TmdYOZJOnFd-120" target="eN8Zq5XajQ-hrPbZrUXH-25" edge="1">
          <mxGeometry width="50" height="50" relative="1" as="geometry">
            <mxPoint x="340" y="300" as="sourcePoint" />
            <mxPoint x="390" y="250" as="targetPoint" />
          </mxGeometry>
        </mxCell>
        <mxCell id="U0r4ra3TlqdGY_YgzOI1-64" value="" style="endArrow=classic;html=1;rounded=0;exitX=1;exitY=0.75;exitDx=0;exitDy=0;entryX=1;entryY=0.5;entryDx=0;entryDy=0;" parent="1" source="qLZYFt0uQZEpN5fuRu8l-13" target="qLZYFt0uQZEpN5fuRu8l-12" edge="1">
          <mxGeometry width="50" height="50" relative="1" as="geometry">
            <mxPoint x="1380" y="300" as="sourcePoint" />
            <mxPoint x="1430" y="250" as="targetPoint" />
            <Array as="points">
              <mxPoint x="1840" />
              <mxPoint x="1840" y="440" />
            </Array>
          </mxGeometry>
        </mxCell>
        <mxCell id="U0r4ra3TlqdGY_YgzOI1-66" value="" style="endArrow=none;dashed=1;html=1;dashPattern=1 3;strokeWidth=2;rounded=0;exitX=1;exitY=0.5;exitDx=0;exitDy=0;entryX=0;entryY=0.5;entryDx=0;entryDy=0;" parent="1" source="qLZYFt0uQZEpN5fuRu8l-13" target="pcb0Rrb9AqgbB0oOaPCg-23" edge="1">
          <mxGeometry width="50" height="50" relative="1" as="geometry">
            <mxPoint x="1490" y="300" as="sourcePoint" />
            <mxPoint x="1540" y="250" as="targetPoint" />
          </mxGeometry>
        </mxCell>
        <mxCell id="U0r4ra3TlqdGY_YgzOI1-67" value="" style="endArrow=none;dashed=1;html=1;dashPattern=1 3;strokeWidth=2;rounded=0;exitX=1;exitY=0.5;exitDx=0;exitDy=0;entryX=1;entryY=0.75;entryDx=0;entryDy=0;" parent="1" source="qLZYFt0uQZEpN5fuRu8l-13" target="kH9g7bd3vH2FBUtWPBsq-4" edge="1">
          <mxGeometry width="50" height="50" relative="1" as="geometry">
            <mxPoint x="1490" y="300" as="sourcePoint" />
            <mxPoint x="1910" y="280" as="targetPoint" />
            <Array as="points">
              <mxPoint x="1880" y="-40" />
              <mxPoint x="1880" y="380" />
            </Array>
          </mxGeometry>
        </mxCell>
        <mxCell id="U0r4ra3TlqdGY_YgzOI1-68" value="" style="endArrow=none;dashed=1;html=1;dashPattern=1 3;strokeWidth=2;rounded=0;exitX=1;exitY=0.5;exitDx=0;exitDy=0;entryX=1;entryY=0.5;entryDx=0;entryDy=0;" parent="1" source="qLZYFt0uQZEpN5fuRu8l-13" target="kH9g7bd3vH2FBUtWPBsq-3" edge="1">
          <mxGeometry width="50" height="50" relative="1" as="geometry">
            <mxPoint x="1610" y="100" as="sourcePoint" />
            <mxPoint x="1660" y="50" as="targetPoint" />
            <Array as="points">
              <mxPoint x="1880" y="-40" />
              <mxPoint x="1880" y="-200" />
            </Array>
          </mxGeometry>
        </mxCell>
        <mxCell id="U0r4ra3TlqdGY_YgzOI1-69" value="" style="endArrow=classic;html=1;rounded=0;exitX=1;exitY=0.5;exitDx=0;exitDy=0;entryX=0;entryY=0.75;entryDx=0;entryDy=0;" parent="1" source="U0r4ra3TlqdGY_YgzOI1-27" target="U0r4ra3TlqdGY_YgzOI1-48" edge="1">
          <mxGeometry width="50" height="50" relative="1" as="geometry">
            <mxPoint x="1610" y="100" as="sourcePoint" />
            <mxPoint x="1660" y="50" as="targetPoint" />
            <Array as="points">
              <mxPoint x="1280" y="160" />
              <mxPoint x="1280" y="100" />
            </Array>
          </mxGeometry>
        </mxCell>
        <mxCell id="U0r4ra3TlqdGY_YgzOI1-71" value="" style="whiteSpace=wrap;html=1;aspect=fixed;" parent="1" vertex="1">
          <mxGeometry x="1160" y="-320" width="80" height="80" as="geometry" />
        </mxCell>
        <mxCell id="U0r4ra3TlqdGY_YgzOI1-72" value="" style="endArrow=none;html=1;startArrow=none;" parent="1" source="U0r4ra3TlqdGY_YgzOI1-80" edge="1">
          <mxGeometry width="50" height="50" relative="1" as="geometry">
            <mxPoint x="1215" y="-280" as="sourcePoint" />
            <mxPoint x="1235" y="-280" as="targetPoint" />
          </mxGeometry>
        </mxCell>
        <mxCell id="U0r4ra3TlqdGY_YgzOI1-73" value="" style="endArrow=none;html=1;" parent="1" edge="1">
          <mxGeometry width="50" height="50" relative="1" as="geometry">
            <mxPoint x="1146" y="-300" as="sourcePoint" />
            <mxPoint x="1176" y="-300" as="targetPoint" />
          </mxGeometry>
        </mxCell>
        <mxCell id="U0r4ra3TlqdGY_YgzOI1-74" value="" style="endArrow=none;html=1;" parent="1" edge="1">
          <mxGeometry width="50" height="50" relative="1" as="geometry">
            <mxPoint x="1145" y="-280.2" as="sourcePoint" />
            <mxPoint x="1175" y="-280.2" as="targetPoint" />
          </mxGeometry>
        </mxCell>
        <mxCell id="U0r4ra3TlqdGY_YgzOI1-75" value="" style="endArrow=none;html=1;" parent="1" edge="1">
          <mxGeometry width="50" height="50" relative="1" as="geometry">
            <mxPoint x="1145" y="-260.00000000000006" as="sourcePoint" />
            <mxPoint x="1175" y="-260.00000000000006" as="targetPoint" />
          </mxGeometry>
        </mxCell>
        <mxCell id="U0r4ra3TlqdGY_YgzOI1-76" value="" style="shape=waypoint;sketch=0;fillStyle=solid;size=4;pointerEvents=1;points=[];fillColor=none;resizable=0;rotatable=0;perimeter=centerPerimeter;snapToPoint=1;" parent="1" vertex="1">
          <mxGeometry x="1165" y="-310" width="20" height="20" as="geometry" />
        </mxCell>
        <mxCell id="U0r4ra3TlqdGY_YgzOI1-77" value="" style="shape=waypoint;sketch=0;fillStyle=solid;size=4;pointerEvents=1;points=[];fillColor=none;resizable=0;rotatable=0;perimeter=centerPerimeter;snapToPoint=1;" parent="1" vertex="1">
          <mxGeometry x="1165" y="-290" width="20" height="20" as="geometry" />
        </mxCell>
        <mxCell id="U0r4ra3TlqdGY_YgzOI1-78" value="" style="shape=waypoint;sketch=0;fillStyle=solid;size=4;pointerEvents=1;points=[];fillColor=none;resizable=0;rotatable=0;perimeter=centerPerimeter;snapToPoint=1;" parent="1" vertex="1">
          <mxGeometry x="1165" y="-270" width="20" height="20" as="geometry" />
        </mxCell>
        <mxCell id="U0r4ra3TlqdGY_YgzOI1-79" value="" style="endArrow=none;html=1;" parent="1" target="U0r4ra3TlqdGY_YgzOI1-80" edge="1">
          <mxGeometry width="50" height="50" relative="1" as="geometry">
            <mxPoint x="1215" y="-280" as="sourcePoint" />
            <mxPoint x="1235" y="-280" as="targetPoint" />
          </mxGeometry>
        </mxCell>
        <mxCell id="U0r4ra3TlqdGY_YgzOI1-80" value="" style="shape=waypoint;sketch=0;fillStyle=solid;size=4;pointerEvents=1;points=[];fillColor=none;resizable=0;rotatable=0;perimeter=centerPerimeter;snapToPoint=1;" parent="1" vertex="1">
          <mxGeometry x="1206" y="-290" width="20" height="20" as="geometry" />
        </mxCell>
        <mxCell id="U0r4ra3TlqdGY_YgzOI1-81" value="" style="endArrow=none;html=1;" parent="1" edge="1">
          <mxGeometry width="50" height="50" relative="1" as="geometry">
            <mxPoint x="1175" y="-270" as="sourcePoint" />
            <mxPoint x="1215" y="-280" as="targetPoint" />
          </mxGeometry>
        </mxCell>
        <mxCell id="U0r4ra3TlqdGY_YgzOI1-82" value="" style="endArrow=classic;html=1;rounded=0;exitX=0;exitY=0.5;exitDx=0;exitDy=0;entryX=0.485;entryY=0.763;entryDx=0;entryDy=0;entryPerimeter=0;" parent="1" source="kH9g7bd3vH2FBUtWPBsq-3" target="U0r4ra3TlqdGY_YgzOI1-78" edge="1">
          <mxGeometry width="50" height="50" relative="1" as="geometry">
            <mxPoint x="1630" y="10" as="sourcePoint" />
            <mxPoint x="1680" y="-40" as="targetPoint" />
            <Array as="points">
              <mxPoint x="1120" y="-200" />
              <mxPoint x="1120" y="-260" />
            </Array>
          </mxGeometry>
        </mxCell>
        <mxCell id="U0r4ra3TlqdGY_YgzOI1-84" value="" style="endArrow=classic;html=1;rounded=0;exitX=1;exitY=0.5;exitDx=0;exitDy=0;entryX=0.376;entryY=0.589;entryDx=0;entryDy=0;entryPerimeter=0;" parent="1" source="kH9g7bd3vH2FBUtWPBsq-5" target="U0r4ra3TlqdGY_YgzOI1-77" edge="1">
          <mxGeometry width="50" height="50" relative="1" as="geometry">
            <mxPoint x="910" y="10" as="sourcePoint" />
            <mxPoint x="960" y="-40" as="targetPoint" />
          </mxGeometry>
        </mxCell>
        <mxCell id="U0r4ra3TlqdGY_YgzOI1-85" value="&lt;font style=&quot;font-size: 8px;&quot;&gt;$$FPotentialCircuit$$&lt;/font&gt;" style="rounded=0;whiteSpace=wrap;html=1;" parent="1" vertex="1">
          <mxGeometry x="280" y="-420" width="80" height="80" as="geometry" />
        </mxCell>
        <mxCell id="U0r4ra3TlqdGY_YgzOI1-86" value="" style="edgeStyle=orthogonalEdgeStyle;rounded=0;orthogonalLoop=1;jettySize=auto;html=1;" parent="1" source="U0r4ra3TlqdGY_YgzOI1-87" target="U0r4ra3TlqdGY_YgzOI1-89" edge="1">
          <mxGeometry relative="1" as="geometry" />
        </mxCell>
        <mxCell id="U0r4ra3TlqdGY_YgzOI1-87" value="$$*$$" style="rounded=0;whiteSpace=wrap;html=1;" parent="1" vertex="1">
          <mxGeometry x="880" y="-440" width="80" height="80" as="geometry" />
        </mxCell>
        <mxCell id="U0r4ra3TlqdGY_YgzOI1-88" value="$$Kc1$$" style="rounded=0;whiteSpace=wrap;html=1;" parent="1" vertex="1">
          <mxGeometry x="600" y="-640" width="80" height="80" as="geometry" />
        </mxCell>
        <mxCell id="U0r4ra3TlqdGY_YgzOI1-89" value="" style="whiteSpace=wrap;html=1;aspect=fixed;" parent="1" vertex="1">
          <mxGeometry x="1000" y="-440" width="80" height="80" as="geometry" />
        </mxCell>
        <mxCell id="U0r4ra3TlqdGY_YgzOI1-90" value="" style="endArrow=none;html=1;" parent="1" edge="1">
          <mxGeometry width="50" height="50" relative="1" as="geometry">
            <mxPoint x="1028" y="-384" as="sourcePoint" />
            <mxPoint x="1052" y="-414" as="targetPoint" />
          </mxGeometry>
        </mxCell>
        <mxCell id="U0r4ra3TlqdGY_YgzOI1-91" value="" style="endArrow=none;html=1;" parent="1" edge="1">
          <mxGeometry width="50" height="50" relative="1" as="geometry">
            <mxPoint x="1052" y="-414" as="sourcePoint" />
            <mxPoint x="1072" y="-414" as="targetPoint" />
          </mxGeometry>
        </mxCell>
        <mxCell id="U0r4ra3TlqdGY_YgzOI1-92" value="" style="edgeStyle=orthogonalEdgeStyle;rounded=0;orthogonalLoop=1;jettySize=auto;html=1;" parent="1" source="U0r4ra3TlqdGY_YgzOI1-93" target="U0r4ra3TlqdGY_YgzOI1-94" edge="1">
          <mxGeometry relative="1" as="geometry" />
        </mxCell>
        <mxCell id="U0r4ra3TlqdGY_YgzOI1-93" value="$$:$$" style="rounded=0;whiteSpace=wrap;html=1;" parent="1" vertex="1">
          <mxGeometry x="600" y="-520" width="80" height="80" as="geometry" />
        </mxCell>
        <mxCell id="U0r4ra3TlqdGY_YgzOI1-94" value="$$FRectifier$$" style="rounded=0;whiteSpace=wrap;html=1;" parent="1" vertex="1">
          <mxGeometry x="719" y="-520" width="80" height="80" as="geometry" />
        </mxCell>
        <mxCell id="U0r4ra3TlqdGY_YgzOI1-96" value="&lt;font style=&quot;font-size: 9px;&quot;&gt;$$IrPu$$&lt;/font&gt;" style="triangle;whiteSpace=wrap;html=1;align=left;" parent="1" vertex="1">
          <mxGeometry x="-700" y="-720" width="60" height="80" as="geometry" />
        </mxCell>
        <mxCell id="U0r4ra3TlqdGY_YgzOI1-98" value="" style="whiteSpace=wrap;html=1;aspect=fixed;" parent="1" vertex="1">
          <mxGeometry x="441" y="-300" width="80" height="80" as="geometry" />
        </mxCell>
        <mxCell id="U0r4ra3TlqdGY_YgzOI1-99" value="" style="endArrow=none;html=1;startArrow=none;" parent="1" source="U0r4ra3TlqdGY_YgzOI1-107" edge="1">
          <mxGeometry width="50" height="50" relative="1" as="geometry">
            <mxPoint x="501" y="-260" as="sourcePoint" />
            <mxPoint x="521" y="-260" as="targetPoint" />
          </mxGeometry>
        </mxCell>
        <mxCell id="U0r4ra3TlqdGY_YgzOI1-100" value="" style="endArrow=none;html=1;" parent="1" edge="1">
          <mxGeometry width="50" height="50" relative="1" as="geometry">
            <mxPoint x="432" y="-280" as="sourcePoint" />
            <mxPoint x="462" y="-280" as="targetPoint" />
          </mxGeometry>
        </mxCell>
        <mxCell id="U0r4ra3TlqdGY_YgzOI1-101" value="" style="endArrow=none;html=1;" parent="1" edge="1">
          <mxGeometry width="50" height="50" relative="1" as="geometry">
            <mxPoint x="431" y="-260.20000000000005" as="sourcePoint" />
            <mxPoint x="461" y="-260.20000000000005" as="targetPoint" />
          </mxGeometry>
        </mxCell>
        <mxCell id="U0r4ra3TlqdGY_YgzOI1-102" value="" style="endArrow=none;html=1;" parent="1" edge="1">
          <mxGeometry width="50" height="50" relative="1" as="geometry">
            <mxPoint x="431" y="-240" as="sourcePoint" />
            <mxPoint x="461" y="-240" as="targetPoint" />
          </mxGeometry>
        </mxCell>
        <mxCell id="U0r4ra3TlqdGY_YgzOI1-103" value="" style="shape=waypoint;sketch=0;fillStyle=solid;size=4;pointerEvents=1;points=[];fillColor=none;resizable=0;rotatable=0;perimeter=centerPerimeter;snapToPoint=1;" parent="1" vertex="1">
          <mxGeometry x="451" y="-290" width="20" height="20" as="geometry" />
        </mxCell>
        <mxCell id="U0r4ra3TlqdGY_YgzOI1-104" value="" style="shape=waypoint;sketch=0;fillStyle=solid;size=4;pointerEvents=1;points=[];fillColor=none;resizable=0;rotatable=0;perimeter=centerPerimeter;snapToPoint=1;" parent="1" vertex="1">
          <mxGeometry x="451" y="-270" width="20" height="20" as="geometry" />
        </mxCell>
        <mxCell id="U0r4ra3TlqdGY_YgzOI1-105" value="" style="shape=waypoint;sketch=0;fillStyle=solid;size=4;pointerEvents=1;points=[];fillColor=none;resizable=0;rotatable=0;perimeter=centerPerimeter;snapToPoint=1;" parent="1" vertex="1">
          <mxGeometry x="451" y="-250" width="20" height="20" as="geometry" />
        </mxCell>
        <mxCell id="U0r4ra3TlqdGY_YgzOI1-106" value="" style="endArrow=none;html=1;" parent="1" target="U0r4ra3TlqdGY_YgzOI1-107" edge="1">
          <mxGeometry width="50" height="50" relative="1" as="geometry">
            <mxPoint x="501" y="-260" as="sourcePoint" />
            <mxPoint x="521" y="-260" as="targetPoint" />
          </mxGeometry>
        </mxCell>
        <mxCell id="U0r4ra3TlqdGY_YgzOI1-107" value="" style="shape=waypoint;sketch=0;fillStyle=solid;size=4;pointerEvents=1;points=[];fillColor=none;resizable=0;rotatable=0;perimeter=centerPerimeter;snapToPoint=1;" parent="1" vertex="1">
          <mxGeometry x="492" y="-270" width="20" height="20" as="geometry" />
        </mxCell>
        <mxCell id="U0r4ra3TlqdGY_YgzOI1-108" value="" style="endArrow=none;html=1;" parent="1" edge="1">
          <mxGeometry width="50" height="50" relative="1" as="geometry">
            <mxPoint x="461" y="-250" as="sourcePoint" />
            <mxPoint x="501" y="-260" as="targetPoint" />
          </mxGeometry>
        </mxCell>
        <mxCell id="U0r4ra3TlqdGY_YgzOI1-109" value="" style="endArrow=classic;html=1;rounded=0;exitX=1;exitY=0.5;exitDx=0;exitDy=0;entryX=0;entryY=0.75;entryDx=0;entryDy=0;" parent="1" source="U0r4ra3TlqdGY_YgzOI1-98" target="U0r4ra3TlqdGY_YgzOI1-93" edge="1">
          <mxGeometry width="50" height="50" relative="1" as="geometry">
            <mxPoint x="520" y="-540" as="sourcePoint" />
            <mxPoint x="570" y="-590" as="targetPoint" />
            <Array as="points">
              <mxPoint x="560" y="-260" />
              <mxPoint x="560" y="-460" />
            </Array>
          </mxGeometry>
        </mxCell>
        <mxCell id="U0r4ra3TlqdGY_YgzOI1-110" value="$$Kc$$" style="rounded=0;whiteSpace=wrap;html=1;" parent="1" vertex="1">
          <mxGeometry x="281" y="-180" width="80" height="80" as="geometry" />
        </mxCell>
        <mxCell id="U0r4ra3TlqdGY_YgzOI1-111" value="$$Sw1$$" style="rounded=0;whiteSpace=wrap;html=1;" parent="1" vertex="1">
          <mxGeometry x="281" y="-300" width="80" height="80" as="geometry" />
        </mxCell>
        <mxCell id="U0r4ra3TlqdGY_YgzOI1-112" value="" style="endArrow=classic;html=1;rounded=0;exitX=1;exitY=0.5;exitDx=0;exitDy=0;entryX=0;entryY=0.636;entryDx=0;entryDy=0;entryPerimeter=0;" parent="1" source="U0r4ra3TlqdGY_YgzOI1-111" target="U0r4ra3TlqdGY_YgzOI1-104" edge="1">
          <mxGeometry width="50" height="50" relative="1" as="geometry">
            <mxPoint x="51" y="-250" as="sourcePoint" />
            <mxPoint x="101" y="-300" as="targetPoint" />
          </mxGeometry>
        </mxCell>
        <mxCell id="U0r4ra3TlqdGY_YgzOI1-113" value="" style="endArrow=classic;html=1;rounded=0;exitX=1;exitY=0.5;exitDx=0;exitDy=0;entryX=0.429;entryY=0.16;entryDx=0;entryDy=0;entryPerimeter=0;" parent="1" source="U0r4ra3TlqdGY_YgzOI1-85" target="U0r4ra3TlqdGY_YgzOI1-103" edge="1">
          <mxGeometry width="50" height="50" relative="1" as="geometry">
            <mxPoint x="51" y="-250" as="sourcePoint" />
            <mxPoint x="101" y="-300" as="targetPoint" />
            <Array as="points">
              <mxPoint x="401" y="-380" />
              <mxPoint x="401" y="-280" />
            </Array>
          </mxGeometry>
        </mxCell>
        <mxCell id="U0r4ra3TlqdGY_YgzOI1-114" value="" style="endArrow=classic;html=1;rounded=0;exitX=1;exitY=0.5;exitDx=0;exitDy=0;entryX=0.286;entryY=0.445;entryDx=0;entryDy=0;entryPerimeter=0;" parent="1" source="U0r4ra3TlqdGY_YgzOI1-110" target="U0r4ra3TlqdGY_YgzOI1-105" edge="1">
          <mxGeometry width="50" height="50" relative="1" as="geometry">
            <mxPoint x="51" y="-250" as="sourcePoint" />
            <mxPoint x="101" y="-300" as="targetPoint" />
            <Array as="points">
              <mxPoint x="401" y="-140" />
              <mxPoint x="401" y="-240" />
            </Array>
          </mxGeometry>
        </mxCell>
        <mxCell id="U0r4ra3TlqdGY_YgzOI1-115" value="" style="endArrow=classic;html=1;rounded=0;exitX=1.14;exitY=0.54;exitDx=0;exitDy=0;exitPerimeter=0;entryX=0;entryY=0.75;entryDx=0;entryDy=0;" parent="1" source="U0r4ra3TlqdGY_YgzOI1-107" target="U0r4ra3TlqdGY_YgzOI1-87" edge="1">
          <mxGeometry width="50" height="50" relative="1" as="geometry">
            <mxPoint x="600" y="-470" as="sourcePoint" />
            <mxPoint x="880" y="-480" as="targetPoint" />
            <Array as="points">
              <mxPoint x="840" y="-260" />
              <mxPoint x="840" y="-380" />
            </Array>
          </mxGeometry>
        </mxCell>
        <mxCell id="U0r4ra3TlqdGY_YgzOI1-116" value="&lt;font style=&quot;font-size: 9px;&quot;&gt;$$utPu$$&lt;/font&gt;" style="triangle;whiteSpace=wrap;html=1;align=left;" parent="1" vertex="1">
          <mxGeometry x="-700" y="-480" width="60" height="80" as="geometry" />
        </mxCell>
        <mxCell id="U0r4ra3TlqdGY_YgzOI1-117" value="&lt;font style=&quot;font-size: 9px;&quot;&gt;$$itPu$$&lt;/font&gt;" style="triangle;whiteSpace=wrap;html=1;align=left;" parent="1" vertex="1">
          <mxGeometry x="-700" y="-359" width="60" height="80" as="geometry" />
        </mxCell>
        <mxCell id="U0r4ra3TlqdGY_YgzOI1-118" value="" style="endArrow=classic;html=1;rounded=0;exitX=1;exitY=0.5;exitDx=0;exitDy=0;entryX=0;entryY=0.25;entryDx=0;entryDy=0;" parent="1" source="U0r4ra3TlqdGY_YgzOI1-116" target="U0r4ra3TlqdGY_YgzOI1-85" edge="1">
          <mxGeometry width="50" height="50" relative="1" as="geometry">
            <mxPoint x="-10" y="-210" as="sourcePoint" />
            <mxPoint x="40" y="-260" as="targetPoint" />
            <Array as="points">
              <mxPoint x="240" y="-440" />
              <mxPoint x="240" y="-400" />
            </Array>
          </mxGeometry>
        </mxCell>
        <mxCell id="U0r4ra3TlqdGY_YgzOI1-119" value="" style="endArrow=classic;html=1;rounded=0;exitX=1;exitY=0.5;exitDx=0;exitDy=0;entryX=0;entryY=0.75;entryDx=0;entryDy=0;" parent="1" source="U0r4ra3TlqdGY_YgzOI1-117" target="U0r4ra3TlqdGY_YgzOI1-85" edge="1">
          <mxGeometry width="50" height="50" relative="1" as="geometry">
            <mxPoint x="-10" y="-210" as="sourcePoint" />
            <mxPoint x="40" y="-260" as="targetPoint" />
            <Array as="points">
              <mxPoint x="240" y="-319" />
              <mxPoint x="240" y="-360" />
            </Array>
          </mxGeometry>
        </mxCell>
        <mxCell id="U0r4ra3TlqdGY_YgzOI1-120" value="" style="endArrow=classic;html=1;rounded=0;exitX=1;exitY=0.5;exitDx=0;exitDy=0;entryX=0;entryY=0.25;entryDx=0;entryDy=0;" parent="1" source="U0r4ra3TlqdGY_YgzOI1-94" target="U0r4ra3TlqdGY_YgzOI1-87" edge="1">
          <mxGeometry width="50" height="50" relative="1" as="geometry">
            <mxPoint x="400" y="-460" as="sourcePoint" />
            <mxPoint x="450" y="-510" as="targetPoint" />
            <Array as="points">
              <mxPoint x="840" y="-480" />
              <mxPoint x="840" y="-420" />
            </Array>
          </mxGeometry>
        </mxCell>
        <mxCell id="U0r4ra3TlqdGY_YgzOI1-121" value="&lt;font style=&quot;font-size: 9px;&quot;&gt;$$VbMaxPu$$&lt;/font&gt;" style="text;html=1;strokeColor=none;fillColor=none;align=center;verticalAlign=middle;whiteSpace=wrap;rounded=0;fontSize=15;" parent="1" vertex="1">
          <mxGeometry x="1040" y="-470" width="60" height="30" as="geometry" />
        </mxCell>
        <mxCell id="U0r4ra3TlqdGY_YgzOI1-122" value="" style="endArrow=classic;html=1;rounded=0;exitX=1;exitY=0.5;exitDx=0;exitDy=0;" parent="1" source="U0r4ra3TlqdGY_YgzOI1-89" target="U0r4ra3TlqdGY_YgzOI1-76" edge="1">
          <mxGeometry width="50" height="50" relative="1" as="geometry">
            <mxPoint x="940" y="-420" as="sourcePoint" />
            <mxPoint x="990" y="-470" as="targetPoint" />
            <Array as="points">
              <mxPoint x="1120" y="-400" />
              <mxPoint x="1120" y="-300" />
            </Array>
          </mxGeometry>
        </mxCell>
        <mxCell id="U0r4ra3TlqdGY_YgzOI1-123" value="" style="endArrow=none;dashed=1;html=1;dashPattern=1 3;strokeWidth=2;rounded=0;exitX=1;exitY=0.5;exitDx=0;exitDy=0;entryX=0;entryY=0.25;entryDx=0;entryDy=0;" parent="1" source="U0r4ra3TlqdGY_YgzOI1-71" target="U0r4ra3TlqdGY_YgzOI1-48" edge="1">
          <mxGeometry width="50" height="50" relative="1" as="geometry">
            <mxPoint x="1390" y="-110" as="sourcePoint" />
            <mxPoint x="1440" y="-160" as="targetPoint" />
            <Array as="points">
              <mxPoint x="1280" y="-280" />
              <mxPoint x="1280" y="60" />
            </Array>
          </mxGeometry>
        </mxCell>
        <mxCell id="U0r4ra3TlqdGY_YgzOI1-124" value="" style="endArrow=classic;html=1;rounded=0;exitX=0;exitY=0.5;exitDx=0;exitDy=0;entryX=0;entryY=0.25;entryDx=0;entryDy=0;" parent="1" source="U0r4ra3TlqdGY_YgzOI1-88" target="U0r4ra3TlqdGY_YgzOI1-93" edge="1">
          <mxGeometry width="50" height="50" relative="1" as="geometry">
            <mxPoint x="800" y="-420" as="sourcePoint" />
            <mxPoint x="850" y="-470" as="targetPoint" />
            <Array as="points">
              <mxPoint x="560" y="-600" />
              <mxPoint x="560" y="-500" />
            </Array>
          </mxGeometry>
        </mxCell>
        <mxCell id="U0r4ra3TlqdGY_YgzOI1-125" value="" style="endArrow=classic;html=1;rounded=0;exitX=1;exitY=0.75;exitDx=0;exitDy=0;entryX=1;entryY=0.5;entryDx=0;entryDy=0;" parent="1" source="qLZYFt0uQZEpN5fuRu8l-13" target="U0r4ra3TlqdGY_YgzOI1-88" edge="1">
          <mxGeometry width="50" height="50" relative="1" as="geometry">
            <mxPoint x="1660" y="-210" as="sourcePoint" />
            <mxPoint x="1710" y="-260" as="targetPoint" />
            <Array as="points">
              <mxPoint x="1840" />
              <mxPoint x="1840" y="-600" />
            </Array>
          </mxGeometry>
        </mxCell>
        <mxCell id="U0r4ra3TlqdGY_YgzOI1-127" value="" style="endArrow=none;dashed=1;html=1;dashPattern=1 3;strokeWidth=2;rounded=0;exitX=1;exitY=0.5;exitDx=0;exitDy=0;entryX=0;entryY=0.25;entryDx=0;entryDy=0;" parent="1" source="U0r4ra3TlqdGY_YgzOI1-96" target="qLZYFt0uQZEpN5fuRu8l-13" edge="1">
          <mxGeometry width="50" height="50" relative="1" as="geometry">
            <mxPoint x="-350" y="-330" as="sourcePoint" />
            <mxPoint x="250" y="-530" as="targetPoint" />
            <Array as="points">
              <mxPoint x="1600" y="-680" />
              <mxPoint x="1600" y="-80" />
            </Array>
          </mxGeometry>
        </mxCell>
        <mxCell id="xQnGXj4WF0hZO-zkPdb--1" value="&lt;font style=&quot;font-size: 9px;&quot;&gt;$$USclUelPu$$&lt;/font&gt;" style="triangle;whiteSpace=wrap;html=1;align=left;" vertex="1" parent="1">
          <mxGeometry x="-700" y="560" width="60" height="80" as="geometry" />
        </mxCell>
        <mxCell id="xQnGXj4WF0hZO-zkPdb--2" value="&lt;font style=&quot;font-size: 9px;&quot;&gt;$$USclOelPu$$&lt;/font&gt;" style="triangle;whiteSpace=wrap;html=1;align=left;" vertex="1" parent="1">
          <mxGeometry x="-700" y="-240" width="60" height="80" as="geometry" />
        </mxCell>
      </root>
    </mxGraphModel>
  </diagram>
</mxfile>
